<?xml version="1.0" ?><!DOCTYPE svg  PUBLIC '-//W3C//DTD SVG 1.1//EN'  'http://www.w3.org/Graphics/SVG/1.1/DTD/svg11.dtd'><svg style="enable-background:new 0 0 512 512;" version="1.1" viewBox="0 0 512 512" xml:space="preserve" xmlns="http://www.w3.org/2000/svg" xmlns:xlink="http://www.w3.org/1999/xlink"><g><g id="_x32_0-Search"/><g id="_x31_9-Web_Page"/><g id="_x31_8-Wifi"/><g id="_x31_7-Hotspot"/><g id="_x31_6-Satelite"/><g id="_x31_5-Receiver"/><g id="_x31_4-Receiver"/><g id="_x31_3-Receiver"/><g id="_x31_2-Ethernet"/><g id="_x31_1-Code"/><g id="_x31_0-Homegroup"/><g id="_x30_9-Sharing_Option"/><g id="_x30_8-Data"/><g id="_x30_7-Connectivity"/><g id="_x30_6-Computer"/><g id="_x30_5-Laptop"/><g id="_x30_4-Mobile"/><g id="_x30_3-Network"/><g id="_x30_2-Click"><g><path d="M356.392,413.688c-21.176,13.527-44.648,22.527-68.988,26.661      c3.705-4.633,7.255-9.364,10.655-14.182c1.41-1.998,1.13-4.734-0.689-6.367c-4.138-3.713-6.556-7.746-9.065-12.713      c-1.657-3.279-6.239-3.585-8.291-0.537c-3.482,5.173-7.15,10.241-11.014,15.186v-46.393c0-3.04-0.681-6.042-1.993-8.785      l-15.554-32.52c-2.042-4.269-8.453-2.814-8.453,1.917v8.769h-41.968c-8.386-24.162-13.333-49.602-14.564-75.725h28.944      c1.818,0,3.082-1.796,2.477-3.51c-2.227-6.305-2.572-12.99-1.147-19.304c0.369-1.637-0.892-3.187-2.57-3.187h-27.703      c1.231-26.123,6.178-51.563,14.564-75.725H243l0,47.147c0,2.705,2.329,4.806,5.023,4.563c5.217-0.471,9.974,0.315,14.814,2.108      c2.989,1.107,6.163-1.118,6.163-4.305l0-49.513h41.968c8.386,24.162,13.333,49.602,14.564,75.725h-5.776      c-3.529,0-4.684,4.737-1.55,6.361l30.564,15.841c4.816,2.496,10.16,3.799,15.584,3.799h78.187      c-1.721,24.939-8.359,48.542-18.94,69.859c-2.761,7.286-6.454,11.048-12.523,16.811c-2.506,2.379-2.561,6.36-0.118,8.803      l11.868,11.868c2.711,2.711,7.241,2.322,9.398-0.847C456.223,340.226,469,298.844,469,256c0-117.453-95.586-212.996-212.993-213      c-0.005,0-0.009,0-0.014,0C138.515,43.004,43,138.62,43,256c0,117.584,95.719,213,213,213c43.441,0,83.88-13.079,117.6-35.497      c2.295-1.526,2.623-4.771,0.674-6.72l-12.487-12.487C360.351,412.859,358.104,412.595,356.392,413.688z M420.575,167.275      c12.35,22.817,20.085,48.478,21.965,75.725h-90.993c-1.117-26.012-5.586-51.417-13.193-75.725H420.575z M403.569,141.275H328.85      c-10.45-24.849-24.351-48.251-41.446-69.624C334.376,79.628,375.438,105.173,403.569,141.275z M269,90.264      c12.422,15.898,22.92,33,31.39,51.011H269V90.264z M243,141.275h-31.39c8.47-18.012,18.968-35.113,31.39-51.011V141.275z       M224.595,71.651C207.5,93.025,193.6,116.427,183.15,141.275h-74.718C136.562,105.173,177.624,79.628,224.595,71.651z       M91.425,167.275h82.22c-7.607,24.308-12.075,49.713-13.193,75.725H69.459C71.34,215.753,79.074,190.092,91.425,167.275z       M91.425,344.725C79.074,321.908,71.34,296.247,69.459,269h90.993c1.117,26.012,5.586,51.417,13.193,75.725H91.425z       M108.431,370.725h74.718c10.45,24.849,24.351,48.251,41.446,69.624C177.624,432.372,136.562,406.827,108.431,370.725z       M243,421.736c-12.422-15.898-22.92-33-31.39-51.011H243V421.736z" style="fill:#ffffff;"/><path d="M433.716,436.728c5.858-5.858,5.858-15.355,0-21.213l-55.76-55.76l23.349-22.496      c3.48-3.353,5.132-8.177,4.437-12.959c-0.695-4.782-3.651-8.937-7.942-11.16l-140-72.56c-5.768-2.991-12.805-1.926-17.432,2.634      c-4.627,4.56-5.792,11.581-2.887,17.391l70.001,140c2.134,4.269,6.172,7.267,10.876,8.075c0.847,0.146,1.696,0.217,2.541,0.217      c3.848,0,7.588-1.482,10.407-4.198l25.043-24.127l56.155,56.155c2.929,2.929,6.768,4.394,10.606,4.394      S430.787,439.657,433.716,436.728z M325.188,368.936l-40.251-80.502l80.502,41.723L325.188,368.936z" style="fill:#ffffff;"/></g></g><g id="_x30_1-Website"/></g></svg>